<?xml version="1.0" encoding="UTF-8" standalone="no"?><!DOCTYPE svg PUBLIC "-//W3C//DTD SVG 1.1//EN" "http://www.w3.org/Graphics/SVG/1.1/DTD/svg11.dtd"><svg width="100%" height="100%" viewBox="0 0 184 97" version="1.1" xmlns="http://www.w3.org/2000/svg" xmlns:xlink="http://www.w3.org/1999/xlink" xml:space="preserve" xmlns:serif="http://www.serif.com/" style="fill-rule:evenodd;clip-rule:evenodd;stroke-linejoin:round;stroke-miterlimit:2;"><g><rect x="-4.301" y="-46.122" width="192.756" height="192.756" style="fill:#fff;"/><path d="M179.951,66.144c-0,-2.96 -2.408,-5.367 -5.349,-5.367c-2.978,-0 -5.385,2.407 -5.367,5.367c0,2.96 2.389,5.349 5.367,5.349c2.941,-0.018 5.349,-2.389 5.349,-5.349Z" style="fill:#7b7b7b;"/><path d="M150.651,33.627c10.238,0 18.602,8.198 18.602,18.234c-0,10.055 -8.364,18.253 -18.602,18.253c-10.257,0 -18.621,-8.198 -18.621,-18.253c-0,-10.036 8.364,-18.234 18.621,-18.234Z" style="fill:#7b7b7b;"/><path d="M75.102,33.627c10.257,0 18.602,8.198 18.602,18.234c0,10.055 -8.345,18.253 -18.602,18.253c-10.239,0 -18.603,-8.198 -18.603,-18.253c-0,-10.036 8.364,-18.234 18.603,-18.234Z" style="fill:#7b7b7b;"/><path d="M106.369,68.093l-3.529,0l-8.823,-33.363l16.911,-0l4.191,13.014l4.779,-14.338l11.452,3.603l-10.864,37.021c-0,-0 -3.014,12.205 -11.838,17.058l-12.426,-6.323c0,0 10.129,-2.647 12.5,-13.382c0.386,-1.728 -0.074,-3.29 -2.353,-3.29Z" style="fill:#7b7b7b;"/><path d="M10.325,68.093l-0,-55.826l17.223,-0l0,16.268l10.864,-16.249l18.327,-0l-15.956,24.778l17.996,31.029l-19.944,0l-11.121,-16.967l0,16.967l-17.389,0Z" style="fill:#7b7b7b;"/><path d="M150.651,43.829c1.765,-0 3.235,3.621 3.235,8.032c0,4.449 -1.47,8.052 -3.235,8.052c-1.783,0 -3.235,-3.603 -3.235,-8.052c0,-4.411 1.452,-8.032 3.235,-8.032Z" style="fill:#fff;"/><path d="M75.102,43.829c1.783,-0 3.235,3.621 3.235,8.032c0,4.449 -1.452,8.052 -3.235,8.052c-1.765,0 -3.235,-3.603 -3.235,-8.052c0,-4.411 1.47,-8.032 3.235,-8.032Z" style="fill:#fff;"/><path d="M179.327,66.144c-0,2.61 -2.115,4.724 -4.725,4.724c-2.628,0.019 -4.742,-2.114 -4.742,-4.705c-0.019,-2.629 2.114,-4.762 4.724,-4.762c2.628,-0 4.743,2.133 4.743,4.743Z" style="fill:#fff;"/><path d="M172.599,68.938l0.753,0l-0,-2.537l1.949,-0c1.213,-0 0.882,1.085 1.011,1.783l0.11,0.754l0.901,0c-0.313,-0.515 -0.202,-0.643 -0.276,-1.415c-0.092,-1.03 -0.111,-1.122 -0.717,-1.508c0.588,-0.441 0.809,-0.716 0.791,-1.47c-0.092,-1.342 -0.975,-1.507 -1.894,-1.507l-2.628,0l-0,5.9Z" style="fill:#7b7b7b;"/><path d="M175.246,63.699c0.477,-0 1.194,0.129 1.084,1.14c-0.074,0.754 -0.57,0.901 -1.084,0.901l-1.894,0l-0,-2.041l1.894,-0Z" style="fill:#fff;"/></g></svg>