<?xml version="1.0" encoding="UTF-8" standalone="no"?><!DOCTYPE svg PUBLIC "-//W3C//DTD SVG 1.1//EN" "http://www.w3.org/Graphics/SVG/1.1/DTD/svg11.dtd"><svg width="100%" height="100%" viewBox="0 0 2099 539" version="1.1" xmlns="http://www.w3.org/2000/svg" xmlns:xlink="http://www.w3.org/1999/xlink" xml:space="preserve" xmlns:serif="http://www.serif.com/" style="fill-rule:evenodd;clip-rule:evenodd;stroke-linejoin:round;stroke-miterlimit:2;"><g id="Logo"><path d="M308.526,123.297l21.01,74.61l-75.637,-0c-1.121,0.27 -2.381,0.405 -3.782,0.405l-10.505,0c-4.763,0.271 -9.105,1.149 -13.027,2.636c-3.922,1.487 -5.883,4.258 -5.883,8.312c0,3.785 1.121,7.232 3.362,10.34c2.241,3.109 4.762,6.015 7.564,8.718c0.56,0.811 1.19,1.555 1.891,2.231c0.7,0.675 1.33,1.284 1.891,1.824l62.61,66.501c10.646,11.624 20.38,23.653 29.205,36.088c8.824,12.435 13.236,26.898 13.236,43.387c0,4.055 -0.35,8.313 -1.05,12.773c-0.701,4.461 -1.891,9.124 -3.572,13.99c-4.482,12.435 -13.377,23.788 -26.683,34.061c-13.307,10.272 -33.687,15.408 -61.14,15.408l-104.632,0l-21.01,-74.61l81.52,0c1.121,0.271 2.381,0.406 3.782,0.406l10.505,-0c4.763,-0.27 9.105,-1.149 13.027,-2.636c3.922,-1.487 5.882,-4.257 5.882,-8.312c0,-3.785 -1.12,-7.232 -3.361,-10.34c-2.241,-3.109 -4.763,-6.015 -7.564,-8.718c-0.56,-0.811 -1.19,-1.555 -1.891,-2.231c-0.7,-0.675 -1.33,-1.284 -1.891,-1.824l-60.93,-66.906c-10.365,-11.354 -19.96,-23.248 -28.784,-35.683c-8.824,-12.435 -13.236,-26.897 -13.236,-43.387c-0,-4.055 0.35,-8.313 1.05,-12.773c0.7,-4.461 1.891,-9.124 3.572,-13.99c4.482,-12.435 13.376,-23.856 26.683,-34.263c13.307,-10.408 33.687,-15.612 61.14,-15.612l96.648,-0.405Z" style="fill:#1149ff;fill-rule:nonzero;"/><path d="M662.421,125.662l0,331.285l-145.812,-0c-50.144,-0 -85.372,-13.043 -105.682,-39.13c-20.31,-26.086 -30.465,-58.323 -30.465,-96.709c0,-34.602 5.953,-68.122 17.859,-100.561c11.906,-32.439 25.843,-63.932 41.811,-94.479l97.067,-0.406c-3.641,7.84 -7.913,16.761 -12.816,26.763c-4.902,10.002 -9.875,20.815 -14.917,32.439c-5.883,12.975 -11.556,26.694 -17.019,41.157c-5.462,14.462 -10.014,29.128 -13.656,43.995c-1.961,8.381 -3.502,16.761 -4.623,25.141c-1.12,8.38 -1.68,16.625 -1.68,24.735c-0,19.193 3.781,33.115 11.345,41.765c7.564,8.65 15.828,14.462 24.792,17.436c5.883,1.892 11.556,2.974 17.019,3.244c5.462,0.27 9.875,0.405 13.236,0.405l33.617,-0.405l-0,-256.675l89.924,0Z" style="fill:#1149ff;fill-rule:nonzero;"/><path d="M727.198,125.947l160.373,0c32.563,0.262 56.239,6.94 71.029,20.032c14.789,13.093 24.083,27.626 27.882,43.599c0.542,3.142 1.017,6.416 1.424,9.82c0.407,3.404 0.611,6.677 0.611,9.819c-0,23.305 -11.606,40.041 -21.166,59.311c-9.142,18.426 -13.314,20.964 -26.146,37.837c12.754,24.614 73.34,98.372 92.064,119.058l-72.86,48.706c-26.865,-29.328 -47.022,-63.544 -71.639,-94.858c-24.272,-30.875 -44.729,-54.472 -75.687,-83.249c4.07,-3.142 9.091,-6.677 15.061,-10.605c5.969,-3.928 12.075,-8.117 18.316,-12.569c10.855,-7.856 20.827,-16.431 29.918,-25.727c9.09,-9.296 13.635,-18.788 13.635,-28.477c0,-7.594 -2.781,-12.7 -8.344,-15.318c-5.563,-2.619 -11.6,-4.059 -18.113,-4.321c-2.171,-0.262 -4.274,-0.393 -6.309,-0.393l-9.159,0l-141.242,-0.393l20.352,-72.272Zm83.627,92.817l-0.591,228.087l-87.107,-0l0.591,-228.087l87.107,-0Z" style="fill:#1149ff;fill-rule:nonzero;"/><path d="M1282.72,133.65c26.9,1.165 45.036,75.488 45.036,75.488l-163.653,-0l0,49.641l145.567,-0l-21.042,67.268l-124.309,0l-0.066,57.25l178.627,-0c0,-0 2.03,61.124 -21.407,66.939c-44.96,11.157 -248.352,0 -248.352,0l0,-316.586c0,0 170.697,-1.684 209.599,0Z" style="fill:#1149ff;fill-rule:nonzero;"/><path d="M1612.78,385.061c0.951,0.708 -1.595,68.413 -1.595,68.413l-17.209,-0c-64.185,-0 -141.006,4.682 -181.471,-40.05c-40.465,-44.733 -57.861,-84.856 -57.861,-143.801c0,-37.103 11.163,-70.315 33.488,-99.638c22.325,-29.323 61.86,-43.985 118.603,-43.985l77.674,-0.449l23.255,82.583l-77.673,0c-3.721,0.3 -8.605,0.599 -14.651,0.898c-6.047,0.299 -12.326,1.496 -18.837,3.591c-9.923,3.291 -19.07,9.724 -27.442,19.299c-8.372,9.575 -12.558,24.984 -12.558,46.228c0,35.307 19.035,54.527 38.139,68.088c29.936,21.25 39.68,30.27 88.019,36.706c22.48,2.992 28.553,0.951 30.119,2.117Z" style="fill:#1149ff;fill-rule:nonzero;"/><path d="M1905.59,237.36l-1.04,181.965c0,0 -61.032,14.256 -73.238,0c-12.207,-14.256 -0,-85.534 -0,-85.534l-111.662,-0c0.228,15.411 2.966,30.328 8.213,44.748c5.248,14.421 11.864,28.017 19.85,40.786l-70.842,41.298c-13.462,-19.595 -24.071,-40.841 -31.828,-63.738c-7.758,-22.897 -11.636,-46.235 -11.636,-70.013c-0,-2.642 0.057,-5.339 0.171,-8.091c0.114,-2.752 0.285,-5.449 0.513,-8.091c1.597,-20.916 6.389,-41.281 14.374,-61.096c7.986,-19.815 19.736,-37.208 35.25,-52.179c19.622,-18.934 38.574,-42.979 88.275,-55.7c43.726,-11.191 102.43,-3.014 126.39,13.11c17.526,11.795 34.62,43.066 34.62,43.066c0,-0 -49.245,-2.23 -79.626,2.644c-26.297,4.219 -49.528,9.19 -67.869,19.213c-13.687,7.479 -24.772,17.333 -30.932,27.24c-2.282,3.963 -4.278,7.981 -5.989,12.055c-1.711,4.073 -3.251,7.76 -4.62,11.063l87.348,2.919l1.04,-35.665l73.238,0Z" style="fill:#1149ff;fill-rule:nonzero;"/></g></svg>