<?xml version="1.0" encoding="UTF-8" standalone="no"?><!DOCTYPE svg PUBLIC "-//W3C//DTD SVG 1.1//EN" "http://www.w3.org/Graphics/SVG/1.1/DTD/svg11.dtd"><svg width="100%" height="100%" viewBox="0 0 2620 1178" version="1.1" xmlns="http://www.w3.org/2000/svg" xmlns:xlink="http://www.w3.org/1999/xlink" xml:space="preserve" xmlns:serif="http://www.serif.com/" style="fill-rule:evenodd;clip-rule:evenodd;stroke-linejoin:round;stroke-miterlimit:2;"><g><rect x="0" y="-648" width="2650.39" height="2500" style="fill:#fff;"/><g><path d="M2555.59,250.67c0,-30.712 -24.984,-55.686 -55.499,-55.686c-30.899,-0 -55.873,24.974 -55.686,55.686c-0,30.712 24.787,55.5 55.686,55.5c30.515,-0.187 55.499,-24.788 55.499,-55.5Z" style="fill:#7b7b7b;"/><path d="M2549.12,250.67c0,27.081 -21.945,49.015 -49.025,49.015c-27.267,0.197 -49.202,-21.934 -49.202,-48.818c-0.197,-27.277 21.935,-49.409 49.015,-49.409c27.267,0 49.212,22.132 49.212,49.212Z" style="fill:#fff;"/><path d="M2479.31,279.66l7.813,-0l0,-26.323l20.223,-0c12.585,-0 9.151,11.257 10.489,18.499l1.142,7.824l9.348,-0c-3.247,-5.344 -2.096,-6.672 -2.864,-14.682c-0.954,-10.687 -1.151,-11.641 -7.439,-15.646c6.101,-4.576 8.394,-7.429 8.207,-15.253c-0.954,-13.924 -10.116,-15.636 -19.651,-15.636l-27.268,0l0,61.217Z" style="fill:#7b7b7b;"/><path d="M2506.78,225.302c4.949,-0 12.388,1.338 11.247,11.828c-0.768,7.823 -5.914,9.348 -11.247,9.348l-19.652,0l0,-21.176l19.652,-0Z" style="fill:#fff;"/></g><path d="M1015.96,781.644l0.946,14.864l2.529,13.903l3.165,13.307l5.058,12.97l5.694,12.334l7.587,11.699l8.223,11.374l8.859,10.13l10.116,8.845l10.441,8.236l11.698,6.627l12.335,6.641l13.294,4.111l12.956,4.125l14.877,1.569l14.228,0.96l307.111,-0l-0,-636.984l-197.05,-0l-0,500.983l-32.58,-0l-5.058,-1.569l-9.17,-6.031l-3.165,-4.099l-2.529,-4.747l-1.582,-5.058l-0.947,-5.707l0,-473.772l-197.036,-0l-0,495.289Zm1447.28,-354.23l-0.96,-13.917l-1.569,-14.227l-4.138,-13.917l-4.098,-12.334l-6.641,-12.334l-6.64,-12.348l-8.223,-10.739l-9.17,-9.805l-9.805,-9.182l-11.374,-8.223l-11.712,-7.588l-12.334,-5.693l-13.294,-4.747l-12.97,-3.476l-14.215,-1.582l-14.863,-0.947l-306.489,-0l0,636.984l197.05,-0l-0,-501.619l27.184,0l5.694,0.636l5.071,1.893l8.236,5.694l3.139,4.112l2.529,4.746l1.595,5.059l0.947,5.693l0,473.786l197.05,-0l-0,-495.925Zm-501.943,495.925l-0,-636.984l-197.037,-0l0,636.984l197.037,-0Zm-249.85,-0l0,-840.35l-197.049,-0l-0,840.35l197.049,-0Zm-1226.2,-141.072l-0.96,14.241l-1.582,13.903l-4.112,13.93l-4.111,12.347l-13.281,24.668l-8.223,10.739l-8.845,10.13l-10.13,8.845l-11.387,8.236l-11.699,6.627l-12.334,6.641l-12.97,4.111l-13.281,4.125l-13.917,1.569l-14.863,0.96l-55.355,-0l0,-473.786l-0.635,-5.693l-1.894,-5.059l-5.694,-8.858l-4.111,-3.476l-4.112,-2.218l-5.058,-1.893l-5.693,-0.636l-27.198,0l-0,699.291l-197.05,0l0,-834.656l306.8,-0l14.863,0.947l13.917,1.582l13.281,3.476l12.97,4.747l12.334,5.693l11.699,7.588l11.387,8.223l10.13,9.182l8.845,9.805l8.223,10.739l6.64,12.348l6.641,12.334l4.111,12.334l4.112,13.917l1.582,14.227l0.96,13.917l-0,354.853Zm37.936,-185.961l0,200.202l2.542,13.903l3.165,13.307l5.058,12.97l5.694,12.334l7.263,11.699l8.547,11.374l8.858,10.13l9.806,8.845l10.752,8.236l11.711,6.627l12.322,6.641l13.281,4.111l13.916,4.125l13.917,1.569l14.24,0.96l307.41,-0l-1.894,-495.925l-0.622,-13.917l-2.542,-14.227l-3.152,-13.917l-5.058,-12.334l-5.694,-12.334l-7.587,-12.348l-8.236,-10.739l-9.805,-9.805l-9.805,-9.182l-10.739,-8.223l-12.348,-7.588l-12.334,-5.693l-13.281,-4.747l-13.281,-3.476l-14.876,-1.582l-13.904,-0.947l-303.324,-0l0,135.365l224.248,0l4.747,0.636l6.005,1.893l8.222,5.694l3.165,4.112l2.529,4.746l1.582,5.059l0.947,5.693l0,337.785l-32.891,-0l-5.058,-1.569l-9.17,-6.031l-3.165,-4.099l-2.529,-4.747l-1.582,-5.058l-0,-267.579l-108.168,-0l-20.557,1.582l-18.975,5.071l-14.863,7.263l-6.329,5.059l-6.018,5.071l-5.681,6.64l-4.111,7.276l-7.276,16.446l-4.436,20.557l-0.636,23.086Z" style="fill:#7b7b7b;"/><rect x="288.201" y="991.664" width="2175.04" height="58.494" style="fill:#7b7b7b;"/></g></svg>